<svg width="20" height="28" viewBox="0 0 20 28" fill="none" xmlns="http://www.w3.org/2000/svg">
<rect x="19.2031" y="27.4414" width="18.294" height="12.8058" rx="6.40289" transform="rotate(180 19.2031 27.4414)" fill="black" fill-opacity="0.04"/>
<path d="M6.0707 18.854C6.12092 18.8036 6.1806 18.7636 6.24631 18.7363C6.31202 18.709 6.38247 18.695 6.45362 18.695C6.52477 18.695 6.59522 18.709 6.66093 18.7363C6.72664 18.7636 6.78632 18.8036 6.83655 18.854L10.0572 22.0746L13.2787 18.854C13.3802 18.7524 13.518 18.6954 13.6616 18.6954C13.8052 18.6954 13.943 18.7524 14.0445 18.854C14.1461 18.9555 14.2031 19.0933 14.2031 19.2369C14.2031 19.3805 14.1461 19.5183 14.0445 19.6198L10.4405 23.2238C10.3903 23.2742 10.3306 23.3142 10.2649 23.3415C10.1992 23.3688 10.1288 23.3828 10.0576 23.3828C9.98646 23.3828 9.91601 23.3688 9.8503 23.3415C9.78458 23.3142 9.72491 23.2742 9.67468 23.2238L6.0707 19.6198C6.0203 19.5696 5.98031 19.5099 5.95303 19.4442C5.92574 19.3785 5.9117 19.3081 5.9117 19.2369C5.9117 19.1658 5.92574 19.0953 5.95303 19.0296C5.98031 18.9639 6.0203 18.9042 6.0707 18.854Z" fill="black"/>
<rect width="18.294" height="12.8058" rx="6.40289" transform="matrix(-1 0 0 1 19.2031 0)" fill="black" fill-opacity="0.04"/>
<path d="M6.0707 8.58743C6.12092 8.63782 6.1806 8.67781 6.24631 8.7051C6.31202 8.73238 6.38247 8.74643 6.45362 8.74643C6.52477 8.74643 6.59522 8.73238 6.66093 8.7051C6.72664 8.67781 6.78632 8.63782 6.83655 8.58743L10.0572 5.36682L13.2787 8.58743C13.3802 8.68898 13.518 8.74604 13.6616 8.74604C13.8052 8.74604 13.943 8.68898 14.0445 8.58743C14.1461 8.48587 14.2031 8.34813 14.2031 8.2045C14.2031 8.06088 14.1461 7.92314 14.0445 7.82158L10.4405 4.2176C10.3903 4.1672 10.3306 4.12721 10.2649 4.09992C10.1992 4.07264 10.1288 4.05859 10.0576 4.05859C9.98646 4.05859 9.91601 4.07264 9.8503 4.09992C9.78458 4.12721 9.72491 4.1672 9.67468 4.2176L6.0707 7.82158C6.0203 7.8718 5.98031 7.93148 5.95303 7.99719C5.92574 8.0629 5.9117 8.13335 5.9117 8.2045C5.9117 8.27565 5.92574 8.3461 5.95303 8.41181C5.98031 8.47752 6.0203 8.5372 6.0707 8.58743Z" fill="black"/>
</svg>
